<svg width="141" height="42" viewBox="0 0 141 42" fill="none" xmlns="http://www.w3.org/2000/svg">
<path d="M2.19775 33.4091V8.41736H12.3217C14.1819 8.41736 15.7334 8.6899 16.9762 9.23497C18.2192 9.78 19.1533 10.5367 19.7788 11.5048C20.4044 12.4647 20.7172 13.5711 20.7172 14.8239C20.7172 15.8002 20.5197 16.6585 20.1246 17.3988C19.7295 18.1309 19.1863 18.733 18.4949 19.2048C17.8117 19.6685 17.0297 19.998 16.1491 20.1932V20.4373C17.1121 20.478 18.0133 20.7465 18.8529 21.2427C19.7006 21.7389 20.3879 22.4345 20.9147 23.3294C21.4415 24.2162 21.7048 25.2738 21.7048 26.5022C21.7048 27.8283 21.3716 29.012 20.7048 30.0533C20.0464 31.0865 19.071 31.9041 17.7788 32.5061C16.4865 33.1081 14.8939 33.4091 13.0007 33.4091H2.19775ZM7.54369 29.0892H11.902C13.3917 29.0892 14.4782 28.8086 15.1614 28.2472C15.8446 27.6777 16.186 26.9212 16.186 25.9775C16.186 25.286 16.0173 24.6759 15.6799 24.1471C15.3425 23.6182 14.8609 23.2033 14.2354 22.9023C13.6181 22.6014 12.8814 22.4508 12.0254 22.4508H7.54369V29.0892ZM7.54369 18.8753H11.5069C12.2394 18.8753 12.8896 18.7492 13.4576 18.497C14.0338 18.2367 14.4864 17.8706 14.8156 17.3988C15.1531 16.927 15.3219 16.3615 15.3219 15.7026C15.3219 14.7996 14.9967 14.0714 14.3465 13.5182C13.7044 12.965 12.7908 12.6884 11.6056 12.6884H7.54369V18.8753ZM27.7069 33.7264C26.8921 33.7264 26.1924 33.4417 25.608 32.8722C25.0319 32.2946 24.7438 31.6031 24.7438 30.7977C24.7438 30.0004 25.0319 29.3171 25.608 28.7476C26.1924 28.1781 26.8921 27.8934 27.7069 27.8934C28.4971 27.8934 29.1885 28.1781 29.7811 28.7476C30.3737 29.3171 30.67 30.0004 30.67 30.7977C30.67 31.3346 30.5301 31.8268 30.2502 32.2742C29.9786 32.7135 29.6205 33.0674 29.1761 33.3359C28.7317 33.5962 28.2419 33.7264 27.7069 33.7264ZM34.6349 33.4091V8.41736H44.6108C46.5203 8.41736 48.15 8.75498 49.4999 9.43021C50.858 10.0973 51.8909 11.0451 52.5988 12.2736C53.3148 13.4938 53.6729 14.9297 53.6729 16.5811C53.6729 18.2408 53.3108 19.6685 52.5865 20.8645C51.8621 22.0522 50.8127 22.9633 49.4381 23.5979C48.0719 24.2325 46.4174 24.5498 44.4749 24.5498H37.7956V20.3031H43.6106C44.6314 20.3031 45.4791 20.1648 46.1541 19.8882C46.8289 19.6116 47.331 19.1967 47.6602 18.6434C47.9978 18.0903 48.1665 17.4028 48.1665 16.5811C48.1665 15.7513 47.9978 15.0518 47.6602 14.4823C47.331 13.9128 46.8249 13.4816 46.1417 13.1888C45.4667 12.8877 44.6148 12.7373 43.586 12.7373H39.9809V33.4091H34.6349ZM48.2899 22.0359L54.5742 33.4091H48.6726L42.5242 22.0359H48.2899ZM80.2346 20.9132C80.2346 23.6386 79.712 25.9572 78.6666 27.8689C77.6295 29.7808 76.2138 31.241 74.4195 32.2498C72.6334 33.2505 70.6251 33.7508 68.3945 33.7508C66.1475 33.7508 64.1309 33.2464 62.3448 32.2376C60.5587 31.2288 59.1471 29.7686 58.1101 27.8567C57.073 25.9449 56.5544 23.6304 56.5544 20.9132C56.5544 18.1879 57.073 15.8693 58.1101 13.9576C59.1471 12.0457 60.5587 10.5895 62.3448 9.5889C64.1309 8.58007 66.1475 8.07568 68.3945 8.07568C70.6251 8.07568 72.6334 8.58007 74.4195 9.5889C76.2138 10.5895 77.6295 12.0457 78.6666 13.9576C79.712 15.8693 80.2346 18.1879 80.2346 20.9132ZM74.8146 20.9132C74.8146 19.1479 74.5471 17.6591 74.0121 16.4469C73.4853 15.2347 72.7404 14.3155 71.7774 13.6891C70.8144 13.0627 69.6868 12.7494 68.3945 12.7494C67.1023 12.7494 65.9746 13.0627 65.0117 13.6891C64.0486 14.3155 63.2997 15.2347 62.7646 16.4469C62.2378 17.6591 61.9744 19.1479 61.9744 20.9132C61.9744 22.6786 62.2378 24.1674 62.7646 25.3796C63.2997 26.5917 64.0486 27.511 65.0117 28.1374C65.9746 28.7638 67.1023 29.077 68.3945 29.077C69.6868 29.077 70.8144 28.7638 71.7774 28.1374C72.7404 27.511 73.4853 26.5917 74.0121 25.3796C74.5471 24.1674 74.8146 22.6786 74.8146 20.9132ZM106.979 20.9132C106.979 23.6386 106.456 25.9572 105.41 27.8689C104.373 29.7808 102.957 31.241 101.164 32.2498C99.3771 33.2505 97.3693 33.7508 95.1383 33.7508C92.8913 33.7508 90.8747 33.2464 89.0887 32.2376C87.3025 31.2288 85.8909 29.7686 84.8538 27.8567C83.8168 25.9449 83.2982 23.6304 83.2982 20.9132C83.2982 18.1879 83.8168 15.8693 84.8538 13.9576C85.8909 12.0457 87.3025 10.5895 89.0887 9.5889C90.8747 8.58007 92.8913 8.07568 95.1383 8.07568C97.3693 8.07568 99.3771 8.58007 101.164 9.5889C102.957 10.5895 104.373 12.0457 105.41 13.9576C106.456 15.8693 106.979 18.1879 106.979 20.9132ZM101.559 20.9132C101.559 19.1479 101.291 17.6591 100.756 16.4469C100.229 15.2347 99.4843 14.3155 98.5215 13.6891C97.5586 13.0627 96.4305 12.7494 95.1383 12.7494C93.8461 12.7494 92.7184 13.0627 91.7554 13.6891C90.7924 14.3155 90.0434 15.2347 89.5084 16.4469C88.9816 17.6591 88.7182 19.1479 88.7182 20.9132C88.7182 22.6786 88.9816 24.1674 89.5084 25.3796C90.0434 26.5917 90.7924 27.511 91.7554 28.1374C92.7184 28.7638 93.8461 29.077 95.1383 29.077C96.4305 29.077 97.5586 28.7638 98.5215 28.1374C99.4843 27.511 100.229 26.5917 100.756 25.3796C101.291 24.1674 101.559 22.6786 101.559 20.9132ZM110.486 8.41736H117.079L124.042 25.2087H124.339L131.302 8.41736H137.895V33.4091H132.71V17.1425H132.5L125.957 33.2871H122.426L115.882 17.0815H115.672V33.4091H110.486V8.41736Z" fill="black"/>
<path d="M27.7078 33.7263C26.8929 33.7263 26.1933 33.4416 25.6089 32.8721C25.0327 32.2945 24.7446 31.6031 24.7446 30.7976C24.7446 30.0004 25.0327 29.317 25.6089 28.7475C26.1933 28.1781 26.8929 27.8933 27.7078 27.8933C28.4979 27.8933 29.1893 28.1781 29.7819 28.7475C30.3746 29.317 30.6709 30.0004 30.6709 30.7976C30.6709 31.3345 30.5309 31.8267 30.2511 32.2742C29.9795 32.7135 29.6214 33.0673 29.177 33.3358C28.7325 33.5961 28.2428 33.7263 27.7078 33.7263Z" fill="#0396FC"/>
</svg>
