<svg width="136" height="26" viewBox="0 0 136 26" fill="none" xmlns="http://www.w3.org/2000/svg">
<path d="M0 25.4091V0.417363H10.1239C11.9842 0.417363 13.5356 0.689895 14.7785 1.23497C16.0214 1.78 16.9556 2.53666 17.5811 3.50476C18.2066 4.46465 18.5194 5.57107 18.5194 6.82391C18.5194 7.80022 18.3219 8.65845 17.9268 9.3988C17.5317 10.1309 16.9885 10.733 16.2971 11.2048C15.6139 11.6685 14.832 11.998 13.9513 12.1932V12.4373C14.9144 12.478 15.8156 12.7465 16.6551 13.2427C17.5029 13.7389 18.1902 14.4345 18.7169 15.3294C19.2437 16.2162 19.5071 17.2738 19.5071 18.5022C19.5071 19.8283 19.1738 21.012 18.5071 22.0533C17.8486 23.0865 16.8733 23.9041 15.581 24.5061C14.2887 25.1081 12.6961 25.4091 10.8029 25.4091H0ZM5.34594 21.0892H9.70421C11.194 21.0892 12.2805 20.8086 12.9636 20.2472C13.6468 19.6777 13.9883 18.9212 13.9883 17.9775C13.9883 17.286 13.8196 16.6759 13.4821 16.1471C13.1447 15.6182 12.6632 15.2033 12.0377 14.9023C11.4204 14.6014 10.6837 14.4508 9.82763 14.4508H5.34594V21.0892ZM5.34594 10.8753H9.30912C10.0416 10.8753 10.6919 10.7492 11.2598 10.497C11.836 10.2367 12.2887 9.87063 12.6179 9.3988C12.9553 8.92696 13.1241 8.36149 13.1241 7.70257C13.1241 6.79957 12.799 6.07144 12.1487 5.51819C11.5067 4.96503 10.5931 4.6884 9.40782 4.6884H5.34594V10.8753ZM32.4372 25.4091V0.417363H42.413C44.3225 0.417363 45.9522 0.754976 47.3022 1.43021C48.6602 2.09729 49.6932 3.04505 50.4011 4.27355C51.1171 5.49385 51.4752 6.92967 51.4752 8.58113C51.4752 10.2408 51.113 11.6685 50.3887 12.8645C49.6644 14.0522 48.6149 14.9633 47.2403 15.5979C45.8741 16.2325 44.2197 16.5498 42.2771 16.5498H35.5978V12.3031H41.4129C42.4336 12.3031 43.2813 12.1648 43.9563 11.8882C44.6312 11.6116 45.1333 11.1967 45.4625 10.6434C45.8 10.0903 45.9687 9.40281 45.9687 8.58113C45.9687 7.75135 45.8 7.05176 45.4625 6.48228C45.1333 5.9128 44.6271 5.48163 43.9439 5.18877C43.269 4.88771 42.4171 4.73727 41.3883 4.73727H37.7831V25.4091H32.4372ZM46.0922 14.0359L52.3764 25.4091H46.4749L40.3264 14.0359H46.0922ZM78.0369 12.9132C78.0369 15.6386 77.5142 17.9572 76.4689 19.8689C75.4317 21.7808 74.0161 23.241 72.2218 24.2498C70.4356 25.2505 68.4273 25.7508 66.1967 25.7508C63.9497 25.7508 61.9331 25.2464 60.1471 24.2376C58.361 23.2288 56.9494 21.7686 55.9123 19.8567C54.8752 17.9449 54.3567 15.6304 54.3567 12.9132C54.3567 10.1879 54.8752 7.86933 55.9123 5.95756C56.9494 4.0457 58.361 2.58945 60.1471 1.5889C61.9331 0.580075 63.9497 0.0756836 66.1967 0.0756836C68.4273 0.0756836 70.4356 0.580075 72.2218 1.5889C74.0161 2.58945 75.4317 4.0457 76.4689 5.95756C77.5142 7.86933 78.0369 10.1879 78.0369 12.9132ZM72.6169 12.9132C72.6169 11.1479 72.3494 9.6591 71.8143 8.44692C71.2875 7.23475 70.5426 6.31552 69.5797 5.68905C68.6166 5.06268 67.489 4.7494 66.1967 4.7494C64.9046 4.7494 63.7769 5.06268 62.8139 5.68905C61.8509 6.31552 61.1019 7.23475 60.5669 8.44692C60.0401 9.6591 59.7767 11.1479 59.7767 12.9132C59.7767 14.6786 60.0401 16.1674 60.5669 17.3796C61.1019 18.5917 61.8509 19.511 62.8139 20.1374C63.7769 20.7638 64.9046 21.077 66.1967 21.077C67.489 21.077 68.6166 20.7638 69.5797 20.1374C70.5426 19.511 71.2875 18.5917 71.8143 17.3796C72.3494 16.1674 72.6169 14.6786 72.6169 12.9132ZM104.781 12.9132C104.781 15.6386 104.258 17.9572 103.212 19.8689C102.175 21.7808 100.759 23.241 98.966 24.2498C97.1794 25.2505 95.1716 25.7508 92.9406 25.7508C90.6936 25.7508 88.677 25.2464 86.8909 24.2376C85.1048 23.2288 83.6932 21.7686 82.6561 19.8567C81.619 17.9449 81.1004 15.6304 81.1004 12.9132C81.1004 10.1879 81.619 7.86933 82.6561 5.95756C83.6932 4.0457 85.1048 2.58945 86.8909 1.5889C88.677 0.580075 90.6936 0.0756836 92.9406 0.0756836C95.1716 0.0756836 97.1794 0.580075 98.966 1.5889C100.759 2.58945 102.175 4.0457 103.212 5.95756C104.258 7.86933 104.781 10.1879 104.781 12.9132ZM99.361 12.9132C99.361 11.1479 99.0935 9.6591 98.5585 8.44692C98.0312 7.23475 97.2866 6.31552 96.3237 5.68905C95.3609 5.06268 94.2328 4.7494 92.9406 4.7494C91.6483 4.7494 90.5207 5.06268 89.5576 5.68905C88.5947 6.31552 87.8456 7.23475 87.3106 8.44692C86.7839 9.6591 86.5204 11.1479 86.5204 12.9132C86.5204 14.6786 86.7839 16.1674 87.3106 17.3796C87.8456 18.5917 88.5947 19.511 89.5576 20.1374C90.5207 20.7638 91.6483 21.077 92.9406 21.077C94.2328 21.077 95.3609 20.7638 96.3237 20.1374C97.2866 19.511 98.0312 18.5917 98.5585 17.3796C99.0935 16.1674 99.361 14.6786 99.361 12.9132ZM108.288 0.417363H114.882L121.845 17.2087H122.141L129.104 0.417363H135.697V25.4091H130.512V9.1425H130.302L123.759 25.2871H120.228L113.684 9.0815H113.475V25.4091H108.288V0.417363Z" fill="black"/>
</svg>
