<svg width="200" height="200" viewBox="0 0 200 200" fill="none" xmlns="http://www.w3.org/2000/svg">
<rect width="200" height="200" rx="25" fill="white"/>
<path d="M59.4815 155V45.9091H103.161C111.186 45.9091 117.88 47.0987 123.242 49.478C128.604 51.8572 132.635 55.1598 135.334 59.3857C138.033 63.576 139.382 68.4055 139.382 73.8743C139.382 78.1357 138.53 81.8821 136.825 85.1136C135.121 88.3097 132.777 90.9375 129.794 92.9972C126.847 95.0213 123.473 96.4595 119.673 97.3118V98.3771C123.828 98.5547 127.717 99.7266 131.339 101.893C134.996 104.059 137.962 107.095 140.234 111.001C142.507 114.872 143.643 119.489 143.643 124.851C143.643 130.639 142.205 135.806 139.329 140.352C136.488 144.862 132.28 148.43 126.705 151.058C121.129 153.686 114.258 155 106.09 155H59.4815ZM82.5462 136.143H101.349C107.777 136.143 112.464 134.918 115.412 132.468C118.359 129.982 119.833 126.68 119.833 122.56C119.833 119.542 119.105 116.879 117.649 114.57C116.193 112.262 114.116 110.451 111.417 109.137C108.754 107.823 105.575 107.166 101.882 107.166H82.5462V136.143ZM82.5462 91.5589H99.6449C102.805 91.5589 105.611 91.0085 108.061 89.9077C110.547 88.7713 112.5 87.1733 113.92 85.1136C115.376 83.054 116.104 80.5859 116.104 77.7095C116.104 73.7678 114.702 70.5895 111.896 68.1747C109.126 65.7599 105.185 64.5526 100.071 64.5526H82.5462V91.5589Z" fill="black"/>
<path d="M163.257 156.246C160.093 156.246 157.376 155.128 155.107 152.891C152.87 150.621 151.751 147.905 151.751 144.741C151.751 141.609 152.87 138.924 155.107 136.687C157.376 134.45 160.093 133.331 163.257 133.331C166.325 133.331 169.01 134.45 171.311 136.687C173.612 138.924 174.763 141.609 174.763 144.741C174.763 146.85 174.219 148.784 173.133 150.542C172.078 152.267 170.688 153.658 168.962 154.712C167.236 155.735 165.334 156.246 163.257 156.246Z" fill="#0396FC"/>
</svg>
