<svg width="200" height="200" viewBox="0 0 200 200" fill="none" xmlns="http://www.w3.org/2000/svg">
<rect width="200" height="200" rx="25" fill="white"/>
<path d="M19.6548 116V85.4545H31.8849C34.1321 85.4545 36.0064 85.7876 37.5078 86.4538C39.0092 87.12 40.1378 88.0447 40.8935 89.228C41.6491 90.4013 42.027 91.7536 42.027 93.2848C42.027 94.478 41.7884 95.527 41.3111 96.4318C40.8338 97.3267 40.1776 98.0625 39.3423 98.6392C38.517 99.206 37.5724 99.6087 36.5085 99.8473V100.146C37.6719 100.195 38.7607 100.523 39.7749 101.13C40.799 101.737 41.6293 102.587 42.2656 103.68C42.902 104.764 43.2202 106.057 43.2202 107.558C43.2202 109.179 42.8175 110.626 42.0121 111.898C41.2166 113.161 40.0384 114.161 38.4773 114.896C36.9162 115.632 34.9922 116 32.7053 116H19.6548ZM26.1129 110.72H31.3778C33.1776 110.72 34.4901 110.377 35.3153 109.691C36.1406 108.995 36.5533 108.07 36.5533 106.917C36.5533 106.072 36.3494 105.326 35.9418 104.68C35.5341 104.033 34.9524 103.526 34.1967 103.158C33.451 102.79 32.5611 102.607 31.527 102.607H26.1129V110.72ZM26.1129 98.2365H30.9006C31.7855 98.2365 32.571 98.0824 33.2571 97.7741C33.9531 97.456 34.5 97.0085 34.8977 96.4318C35.3054 95.8551 35.5092 95.1641 35.5092 94.3587C35.5092 93.255 35.1165 92.3651 34.331 91.6889C33.5554 91.0128 32.4517 90.6747 31.0199 90.6747H26.1129V98.2365ZM57.4122 116V85.4545H69.4633C71.7701 85.4545 73.7389 85.8672 75.3696 86.6925C77.0102 87.5078 78.2581 88.6662 79.1132 90.1676C79.9782 91.6591 80.4108 93.4141 80.4108 95.4325C80.4108 97.4609 79.9733 99.206 79.0983 100.668C78.2233 102.119 76.9555 103.233 75.295 104.009C73.6444 104.784 71.6458 105.172 69.2992 105.172H61.2304V99.9815H68.2552C69.4882 99.9815 70.5123 99.8125 71.3277 99.4744C72.143 99.1364 72.7495 98.6293 73.1473 97.9531C73.5549 97.277 73.7588 96.4368 73.7588 95.4325C73.7588 94.4183 73.5549 93.5632 73.1473 92.8672C72.7495 92.1712 72.138 91.6442 71.3127 91.2862C70.4974 90.9183 69.4683 90.7344 68.2254 90.7344H63.8703V116H57.4122ZM73.9079 102.099L81.4995 116H74.3703L66.9427 102.099H73.9079ZM111.784 100.727C111.784 104.058 111.153 106.892 109.89 109.229C108.637 111.565 106.927 113.35 104.759 114.583C102.602 115.806 100.176 116.418 97.481 116.418C94.7665 116.418 92.3304 115.801 90.1728 114.568C88.0151 113.335 86.3098 111.55 85.057 109.214C83.8042 106.877 83.1777 104.048 83.1777 100.727C83.1777 97.3963 83.8042 94.5625 85.057 92.2259C86.3098 89.8892 88.0151 88.1094 90.1728 86.8864C92.3304 85.6534 94.7665 85.0369 97.481 85.0369C100.176 85.0369 102.602 85.6534 104.759 86.8864C106.927 88.1094 108.637 89.8892 109.89 92.2259C111.153 94.5625 111.784 97.3963 111.784 100.727ZM105.237 100.727C105.237 98.5696 104.914 96.75 104.267 95.2685C103.631 93.7869 102.731 92.6634 101.568 91.8977C100.404 91.1321 99.0421 90.7493 97.481 90.7493C95.9199 90.7493 94.5577 91.1321 93.3944 91.8977C92.231 92.6634 91.3262 93.7869 90.6799 95.2685C90.0435 96.75 89.7253 98.5696 89.7253 100.727C89.7253 102.885 90.0435 104.705 90.6799 106.186C91.3262 107.668 92.231 108.791 93.3944 109.557C94.5577 110.322 95.9199 110.705 97.481 110.705C99.0421 110.705 100.404 110.322 101.568 109.557C102.731 108.791 103.631 107.668 104.267 106.186C104.914 104.705 105.237 102.885 105.237 100.727ZM143.378 100.727C143.378 104.058 142.746 106.892 141.484 109.229C140.231 111.565 138.521 113.35 136.353 114.583C134.195 115.806 131.769 116.418 129.075 116.418C126.36 116.418 123.924 115.801 121.766 114.568C119.609 113.335 117.903 111.55 116.651 109.214C115.398 106.877 114.771 104.048 114.771 100.727C114.771 97.3963 115.398 94.5625 116.651 92.2259C117.903 89.8892 119.609 88.1094 121.766 86.8864C123.924 85.6534 126.36 85.0369 129.075 85.0369C131.769 85.0369 134.195 85.6534 136.353 86.8864C138.521 88.1094 140.231 89.8892 141.484 92.2259C142.746 94.5625 143.378 97.3963 143.378 100.727ZM136.83 100.727C136.83 98.5696 136.507 96.75 135.861 95.2685C135.224 93.7869 134.325 92.6634 133.161 91.8977C131.998 91.1321 130.636 90.7493 129.075 90.7493C127.513 90.7493 126.151 91.1321 124.988 91.8977C123.825 92.6634 122.92 93.7869 122.273 95.2685C121.637 96.75 121.319 98.5696 121.319 100.727C121.319 102.885 121.637 104.705 122.273 106.186C122.92 107.668 123.825 108.791 124.988 109.557C126.151 110.322 127.513 110.705 129.075 110.705C130.636 110.705 131.998 110.322 133.161 109.557C134.325 108.791 135.224 107.668 135.861 106.186C136.507 104.705 136.83 102.885 136.83 100.727ZM146.902 85.4545H154.866L163.278 105.977H163.636L172.048 85.4545H180.012V116H173.748V96.1186H173.495L165.59 115.851H161.324L153.419 96.044H153.166V116H146.902V85.4545Z" fill="black"/>
<path d="M49.7569 116.388C48.7725 116.388 47.9273 116.04 47.2214 115.344C46.5253 114.638 46.1773 113.793 46.1773 112.808C46.1773 111.834 46.5253 110.999 47.2214 110.303C47.9273 109.607 48.7725 109.259 49.7569 109.259C50.7114 109.259 51.5466 109.607 52.2626 110.303C52.9785 110.999 53.3364 111.834 53.3364 112.808C53.3364 113.464 53.1674 114.066 52.8293 114.613C52.5012 115.15 52.0687 115.582 51.5317 115.911C50.9948 116.229 50.4032 116.388 49.7569 116.388Z" fill="#0396FC"/>
</svg>
